<?xml version="1.0" standalone="no"?>
<!DOCTYPE svg PUBLIC "-//W3C//DTD SVG 20010904//EN"
 "http://www.w3.org/TR/2001/REC-SVG-20010904/DTD/svg10.dtd">
<svg version="1.0" xmlns="http://www.w3.org/2000/svg"
 width="512.000000pt" height="512.000000pt" viewBox="0 0 512.000000 512.000000"
 preserveAspectRatio="xMidYMid meet">
<metadata>
Created by potrace 1.11, written by Peter Selinger 2001-2013
</metadata>
<g transform="translate(0.000000,512.000000) scale(0.100000,-0.100000)"
fill="#000000" stroke="none">
<path d="M2325 4934 c-275 -39 -439 -79 -618 -148 -802 -311 -1360 -1000
-1504 -1861 -26 -157 -26 -573 0 -730 86 -515 314 -963 672 -1320 357 -358
805 -586 1320 -672 157 -26 573 -26 730 0 515 86 963 314 1320 672 358 357
586 805 672 1320 26 157 26 573 0 730 -114 678 -478 1246 -1037 1620 -272 182
-583 305 -925 366 -96 17 -167 22 -360 24 -132 2 -253 1 -270 -1z"/>
</g>
</svg>
