<?xml version="1.0" encoding="utf-8"?>
<!-- Svg Vector Icons : http://www.onlinewebfonts.com/icon -->
<!DOCTYPE svg PUBLIC "-//W3C//DTD SVG 1.1//EN" "http://www.w3.org/Graphics/SVG/1.1/DTD/svg11.dtd">
<svg version="1.1" xmlns="http://www.w3.org/2000/svg" xmlns:xlink="http://www.w3.org/1999/xlink" x="0px" y="0px" viewBox="0 0 1000 1000" enable-background="new 0 0 1000 1000" xml:space="preserve">
<metadata> Svg Vector Icons : http://www.onlinewebfonts.com/icon </metadata>
<g><g transform="translate(0.000000,511.000000) scale(0.100000,-0.100000)"><path d="M5863.4,4981.4c-28.8-19.2-248-278.7-486.4-578.6c-390.2-490.2-432.5-549.8-432.5-615.2c0-40.4,13.5-92.3,30.8-115.3c19.2-28.8,624.8-342.2,1662.8-861.2L8270.3,1996h140.3c78.8,0,180.7,13.5,230.7,30.8c115.3,38.4,271.1,178.8,336.4,303.7l51.9,98l5.8,609.4l5.8,609.4l-53.8,57.7c-42.3,46.1-355.6,188.4-1495.6,676.7c-792,338.3-1472.5,620.9-1509.1,626.7C5938.4,5014.1,5898,5004.5,5863.4,4981.4z"/><path d="M3445.1,3007.2c-565.2-213.4-1074.6-413.3-1128.4-442.1c-198-107.7-294.1-238.4-769-1030.4c-244.1-407.5-467.1-786.3-496-843.9c-105.7-211.5-123-530.6-42.3-761.3c30.8-88.4,644-1316.8,655.5-1316.8c5.8,0,38.4,53.8,73.1,117.3c115.3,221.1,265.3,348,730.5,622.9c394.1,234.5,417.2,249.9,407.5,296.1c-28.8,134.6-92.3,294.1-161.5,413.3c-42.3,73-75,134.6-73,136.5c3.8,1.9,98,51.9,213.4,111.5c257.6,136.5,457.5,269.1,607.5,409.5l117.3,107.6l80.7-48.1c115.3-65.4,407.5-178.8,540.2-207.6c59.6-13.4,109.6-26.9,109.6-30.8c0-3.8-42.3-59.6-94.2-126.9C4077.6,237,3864.2-97.5,3798.8-239.7c-53.8-117.3-61.5-126.9-194.2-194.2c-76.9-40.4-259.5-149.9-403.7-244.1c-146.1-96.1-403.7-251.8-570.9-349.9c-351.8-203.8-478.7-315.3-567.1-497.9c-73.1-157.6-96.1-259.5-98-438.3c-1.9-540.2,403.7-943.9,951.6-949.7c259.5-1.9,326.8,28.8,1143.8,517.1c607.5,363.3,770.9,453.7,913.1,499.8c371,119.2,836.2,399.9,1191.9,717.1c417.2,372.9,703.6,765.1,1178.4,1609c157.6,282.6,582.5,1130.4,609.4,1215c11.5,40.4-96.1,96.1-1699.4,899.7c-942,471-1728.2,855.5-1745.5,853.5C4488.9,3397.4,4010.3,3222.5,3445.1,3007.2z"/><path d="M1536.2-2535c-103.8-146.1-161.5-253.8-217.2-419.1c-50-138.4-53.8-178.8-55.7-422.9c0-230.7,5.8-290.3,44.2-413.3c148-465.2,474.8-809.3,918.9-961.2c94.2-32.7,163.4-38.4,459.4-38.4c296,0,365.3,5.8,459.4,38.4c348,119.2,653.6,384.5,818.9,711.3c146.1,290.3,192.2,649.8,117.3,942c-21.1,88.4-48.1,169.2-55.7,176.9c-9.6,9.6-138.4-55.8-286.4-144.2c-303.7-180.7-480.6-246.1-701.7-259.5l-149.9-9.6v-257.6c0-151.9-9.6-274.9-21.1-299.9c-75-146.1-286.4-146.1-361.4,0c-13.5,25-21.1,155.7-21.1,328.7v286.4l-184.6,90.4c-251.8,125-461.4,330.6-586.3,572.9c-46.1,94.2-90.3,169.2-98,169.2C1609.2-2444.7,1572.7-2485.1,1536.2-2535z"/></g></g>
</svg>